<mxGraphModel dx="2175" dy="1169" grid="1" gridSize="10" guides="1" tooltips="1" connect="1" arrows="1" fold="1" page="1" pageScale="1" pageWidth="827" pageHeight="1169" math="0" shadow="0">
  <root>
    <mxCell id="0" />
    <mxCell id="1" parent="0" />
    <mxCell id="client" value="Клиент\n(Frontend/Mobile)" style="rounded=1;whiteSpace=wrap;html=1;fillColor=#e1d5e7;strokeColor=#9673a6;fontSize=14;fontStyle=1;" vertex="1" parent="1">
      <mxGeometry x="30" y="30" width="190" height="70" as="geometry" />
    </mxCell>
    <mxCell id="z4TPAnQSz6cN8fsmu4oZ-4" style="edgeStyle=orthogonalEdgeStyle;rounded=0;orthogonalLoop=1;jettySize=auto;html=1;exitX=0.5;exitY=1;exitDx=0;exitDy=0;entryX=0.5;entryY=0;entryDx=0;entryDy=0;strokeColor=light-dark(#0066CC,#56AEFF);strokeWidth=3;" edge="1" parent="1" source="apisix" target="app1">
      <mxGeometry relative="1" as="geometry" />
    </mxCell>
    <mxCell id="z4TPAnQSz6cN8fsmu4oZ-5" style="edgeStyle=orthogonalEdgeStyle;rounded=0;orthogonalLoop=1;jettySize=auto;html=1;exitX=0.5;exitY=1;exitDx=0;exitDy=0;entryX=0.5;entryY=0;entryDx=0;entryDy=0;strokeColor=light-dark(#0066CC,#56AEFF);strokeWidth=3;" edge="1" parent="1" source="apisix" target="app2">
      <mxGeometry relative="1" as="geometry" />
    </mxCell>
    <mxCell id="z4TPAnQSz6cN8fsmu4oZ-6" style="edgeStyle=orthogonalEdgeStyle;rounded=0;orthogonalLoop=1;jettySize=auto;html=1;exitX=0.5;exitY=1;exitDx=0;exitDy=0;entryX=0.5;entryY=0;entryDx=0;entryDy=0;strokeColor=light-dark(#0066CC,#56AEFF);strokeWidth=3;" edge="1" parent="1" source="apisix" target="app3">
      <mxGeometry relative="1" as="geometry" />
    </mxCell>
    <mxCell id="apisix" value="APISIX\nAPI Gateway" style="rounded=1;whiteSpace=wrap;html=1;fillColor=#d0cee2;strokeColor=#56517e;fontSize=14;fontStyle=1;" vertex="1" parent="1">
      <mxGeometry x="320" y="30" width="140" height="70" as="geometry" />
    </mxCell>
    <mxCell id="consul" value="Consul\nService Discovery" style="shape=cylinder3;whiteSpace=wrap;html=1;boundedLbl=1;backgroundOutline=1;size=15;fillColor=#f0f0f0;strokeColor=#666666;fontSize=12;fontStyle=1;" vertex="1" parent="1">
      <mxGeometry x="560" y="10" width="140" height="110" as="geometry" />
    </mxCell>
    <mxCell id="app1" value="pymongo-api-1" style="rounded=1;whiteSpace=wrap;html=1;fillColor=#dae8fc;strokeColor=#6c8ebf;fontSize=12;fontStyle=1;" vertex="1" parent="1">
      <mxGeometry x="195" y="260" width="120" height="60" as="geometry" />
    </mxCell>
    <mxCell id="app2" value="pymongo-api-2" style="rounded=1;whiteSpace=wrap;html=1;fillColor=#dae8fc;strokeColor=#6c8ebf;fontSize=12;fontStyle=1;" vertex="1" parent="1">
      <mxGeometry x="380" y="260" width="120" height="60" as="geometry" />
    </mxCell>
    <mxCell id="router1" value="mongos-r1" style="rounded=1;whiteSpace=wrap;html=1;fillColor=#e1d5e7;strokeColor=#9673a6;fontSize=12;fontStyle=1;" vertex="1" parent="1">
      <mxGeometry x="425" y="490" width="120" height="60" as="geometry" />
    </mxCell>
    <mxCell id="router2" value="mongos-r2" style="rounded=1;whiteSpace=wrap;html=1;fillColor=#e1d5e7;strokeColor=#9673a6;fontSize=12;fontStyle=1;" vertex="1" parent="1">
      <mxGeometry x="645" y="490" width="120" height="60" as="geometry" />
    </mxCell>
    <mxCell id="router3" value="mongos-r3" style="rounded=1;whiteSpace=wrap;html=1;fillColor=#e1d5e7;strokeColor=#9673a6;fontSize=12;fontStyle=1;" vertex="1" parent="1">
      <mxGeometry x="825" y="490" width="120" height="60" as="geometry" />
    </mxCell>
    <mxCell id="redis" value="Redis/Valkey\nCluster" style="shape=cylinder3;whiteSpace=wrap;html=1;boundedLbl=1;backgroundOutline=1;size=15;fillColor=#fff2cc;strokeColor=#d6b656;fontSize=12;fontStyle=1;" vertex="1" parent="1">
      <mxGeometry x="895" y="230" width="140" height="90" as="geometry" />
    </mxCell>
    <mxCell id="config_group" value="Config Servers RS" style="rounded=1;whiteSpace=wrap;html=1;fillColor=#f8cecc;strokeColor=#b85450;fontSize=12;fontStyle=1;dashed=1;" vertex="1" parent="1">
      <mxGeometry x="35" y="730" width="300" height="40" as="geometry" />
    </mxCell>
    <mxCell id="config1" value="configSrv-1&lt;br&gt;(Primary)" style="shape=cylinder3;whiteSpace=wrap;html=1;boundedLbl=1;backgroundOutline=1;size=15;fillColor=#f8cecc;strokeColor=#b85450;fontSize=11;fontStyle=1;" vertex="1" parent="1">
      <mxGeometry x="75" y="790" width="90" height="80" as="geometry" />
    </mxCell>
    <mxCell id="config2" value="configSrv-2&lt;br&gt;(Secondary)" style="shape=cylinder3;whiteSpace=wrap;html=1;boundedLbl=1;backgroundOutline=1;size=15;fillColor=#f8cecc;strokeColor=#b85450;fontSize=11;" vertex="1" parent="1">
      <mxGeometry x="195" y="790" width="90" height="80" as="geometry" />
    </mxCell>
    <mxCell id="config3" value="configSrv-3&lt;br&gt;(Secondary)" style="shape=cylinder3;whiteSpace=wrap;html=1;boundedLbl=1;backgroundOutline=1;size=15;fillColor=#f8cecc;strokeColor=#b85450;fontSize=11;" vertex="1" parent="1">
      <mxGeometry x="135" y="920" width="90" height="80" as="geometry" />
    </mxCell>
    <mxCell id="shard1_group" value="Shard 1 RS" style="rounded=1;whiteSpace=wrap;html=1;fillColor=#d5e8d4;strokeColor=#82b366;fontSize=12;fontStyle=1;dashed=1;" vertex="1" parent="1">
      <mxGeometry x="785" y="810" width="250" height="40" as="geometry" />
    </mxCell>
    <mxCell id="shard1_1" value="shard1-1&lt;br&gt;(Primary)" style="shape=cylinder3;whiteSpace=wrap;html=1;boundedLbl=1;backgroundOutline=1;size=15;fillColor=#d5e8d4;strokeColor=#82b366;fontSize=11;fontStyle=1;" vertex="1" parent="1">
      <mxGeometry x="815" y="880" width="90" height="80" as="geometry" />
    </mxCell>
    <mxCell id="shard1_2" value="shard1-2&lt;br&gt;(Secondary)" style="shape=cylinder3;whiteSpace=wrap;html=1;boundedLbl=1;backgroundOutline=1;size=15;fillColor=#d5e8d4;strokeColor=#82b366;fontSize=11;" vertex="1" parent="1">
      <mxGeometry x="925" y="880" width="90" height="80" as="geometry" />
    </mxCell>
    <mxCell id="shard1_3" value="shard1-3&lt;br&gt;(Secondary)" style="shape=cylinder3;whiteSpace=wrap;html=1;boundedLbl=1;backgroundOutline=1;size=15;fillColor=#d5e8d4;strokeColor=#82b366;fontSize=11;" vertex="1" parent="1">
      <mxGeometry x="870" y="1000" width="90" height="80" as="geometry" />
    </mxCell>
    <mxCell id="shard2_group" value="Shard 2 RS" style="rounded=1;whiteSpace=wrap;html=1;fillColor=#d5e8d4;strokeColor=#82b366;fontSize=12;fontStyle=1;dashed=1;" vertex="1" parent="1">
      <mxGeometry x="1135" y="810" width="250" height="40" as="geometry" />
    </mxCell>
    <mxCell id="shard2_1" value="shard2-1&lt;br&gt;(Primary)" style="shape=cylinder3;whiteSpace=wrap;html=1;boundedLbl=1;backgroundOutline=1;size=15;fillColor=#d5e8d4;strokeColor=#82b366;fontSize=11;fontStyle=1;" vertex="1" parent="1">
      <mxGeometry x="1165" y="880" width="90" height="80" as="geometry" />
    </mxCell>
    <mxCell id="shard2_2" value="shard2-2&lt;br&gt;(Secondary)" style="shape=cylinder3;whiteSpace=wrap;html=1;boundedLbl=1;backgroundOutline=1;size=15;fillColor=#d5e8d4;strokeColor=#82b366;fontSize=11;" vertex="1" parent="1">
      <mxGeometry x="1275" y="880" width="90" height="80" as="geometry" />
    </mxCell>
    <mxCell id="shard2_3" value="shard2-3&lt;br&gt;(Secondary)" style="shape=cylinder3;whiteSpace=wrap;html=1;boundedLbl=1;backgroundOutline=1;size=15;fillColor=#d5e8d4;strokeColor=#82b366;fontSize=11;" vertex="1" parent="1">
      <mxGeometry x="1220" y="1000" width="90" height="80" as="geometry" />
    </mxCell>
    <mxCell id="client_to_apisix" style="edgeStyle=orthogonalEdgeStyle;rounded=0;orthogonalLoop=1;jettySize=auto;html=1;strokeWidth=4;strokeColor=#9673a6;entryX=0;entryY=0.5;entryDx=0;entryDy=0;exitX=1;exitY=0.5;exitDx=0;exitDy=0;" edge="1" parent="1" source="client" target="apisix">
      <mxGeometry relative="1" as="geometry" />
    </mxCell>
    <mxCell id="apisix_to_consul" style="edgeStyle=orthogonalEdgeStyle;rounded=0;orthogonalLoop=1;jettySize=auto;html=1;strokeWidth=3;strokeColor=#666666;entryX=0;entryY=0.5;entryDx=0;entryDy=0;entryPerimeter=0;exitX=1;exitY=0.5;exitDx=0;exitDy=0;dashed=1;" edge="1" parent="1" source="apisix" target="consul">
      <mxGeometry relative="1" as="geometry" />
    </mxCell>
    <mxCell id="app1_to_mongos" style="edgeStyle=orthogonalEdgeStyle;rounded=0;orthogonalLoop=1;jettySize=auto;html=1;strokeWidth=3;strokeColor=#0066cc;entryX=0.5;entryY=0;entryDx=0;entryDy=0;exitX=0.421;exitY=0.983;exitDx=0;exitDy=0;exitPerimeter=0;" edge="1" parent="1" source="app1" target="router1">
      <mxGeometry relative="1" as="geometry">
        <Array as="points">
          <mxPoint x="246" y="440" />
          <mxPoint x="485" y="440" />
        </Array>
        <mxPoint x="245" y="380" as="sourcePoint" />
      </mxGeometry>
    </mxCell>
    <mxCell id="app2_to_mongos" style="edgeStyle=orthogonalEdgeStyle;rounded=0;orthogonalLoop=1;jettySize=auto;html=1;strokeWidth=3;strokeColor=#0066cc;entryX=0.5;entryY=0;entryDx=0;entryDy=0;exitX=0.5;exitY=1;exitDx=0;exitDy=0;" edge="1" parent="1" source="app2" target="router2">
      <mxGeometry relative="1" as="geometry">
        <Array as="points">
          <mxPoint x="435" y="320" />
          <mxPoint x="435" y="440" />
          <mxPoint x="705" y="440" />
        </Array>
        <mxPoint x="434.9999999999998" y="380" as="sourcePoint" />
      </mxGeometry>
    </mxCell>
    <mxCell id="app3_to_mongos" style="edgeStyle=orthogonalEdgeStyle;rounded=0;orthogonalLoop=1;jettySize=auto;html=1;strokeWidth=3;strokeColor=#0066cc;entryX=0.5;entryY=0;entryDx=0;entryDy=0;exitX=0.5;exitY=1;exitDx=0;exitDy=0;" edge="1" parent="1" source="app3" target="router3">
      <mxGeometry relative="1" as="geometry">
        <Array as="points">
          <mxPoint x="625" y="320" />
          <mxPoint x="625" y="440" />
          <mxPoint x="885" y="440" />
        </Array>
        <mxPoint x="625" y="380" as="sourcePoint" />
      </mxGeometry>
    </mxCell>
    <mxCell id="config_bus" value="" style="rounded=0;whiteSpace=wrap;html=1;fillColor=none;strokeColor=#B85450;strokeWidth=2;dashed=1;" vertex="1" parent="1">
      <mxGeometry x="395" y="680" width="230" height="20" as="geometry" />
    </mxCell>
    <mxCell id="router1_to_config" style="endArrow=classic;html=1;rounded=0;exitX=0.5;exitY=1;exitDx=0;exitDy=0;dashed=1;entryX=0.5;entryY=0;entryDx=0;entryDy=0;strokeWidth=2;strokeColor=#B85450;" edge="1" parent="1" source="router1" target="config_bus">
      <mxGeometry width="50" height="50" relative="1" as="geometry">
        <mxPoint x="485" y="590" as="sourcePoint" />
        <mxPoint x="464" y="680" as="targetPoint" />
      </mxGeometry>
    </mxCell>
    <mxCell id="router2_to_config" style="endArrow=classic;html=1;rounded=0;exitX=0.5;exitY=1;exitDx=0;exitDy=0;entryX=0.5;entryY=0;entryDx=0;entryDy=0;dashed=1;strokeWidth=2;strokeColor=#B85450;" edge="1" parent="1" source="router2" target="config_bus">
      <mxGeometry width="50" height="50" relative="1" as="geometry">
        <mxPoint x="705" y="590" as="sourcePoint" />
        <mxPoint x="510" y="680" as="targetPoint" />
      </mxGeometry>
    </mxCell>
    <mxCell id="router3_to_config" style="endArrow=classic;html=1;rounded=0;exitX=0.5;exitY=1;exitDx=0;exitDy=0;entryX=0.5;entryY=0;entryDx=0;entryDy=0;dashed=1;strokeWidth=2;strokeColor=#B85450;" edge="1" parent="1" source="router3" target="config_bus">
      <mxGeometry width="50" height="50" relative="1" as="geometry">
        <mxPoint x="885" y="590" as="sourcePoint" />
        <mxPoint x="556" y="680" as="targetPoint" />
      </mxGeometry>
    </mxCell>
    <mxCell id="config_to_primary" style="edgeStyle=orthogonalEdgeStyle;rounded=0;orthogonalLoop=1;jettySize=auto;html=1;strokeWidth=2;strokeColor=#b85450;entryX=0.5;entryY=0;entryDx=0;entryDy=0;" edge="1" parent="1" target="config_group">
      <mxGeometry relative="1" as="geometry">
        <mxPoint x="395" y="690" as="sourcePoint" />
        <Array as="points">
          <mxPoint x="185" y="690" />
        </Array>
      </mxGeometry>
    </mxCell>
    <mxCell id="shard_bus" value="" style="rounded=0;whiteSpace=wrap;html=1;fillColor=none;strokeColor=#82b366;strokeWidth=3;dashed=1;" vertex="1" parent="1">
      <mxGeometry x="695" y="680" width="300" height="20" as="geometry" />
    </mxCell>
    <mxCell id="router1_to_shard" style="endArrow=classic;html=1;rounded=0;exitX=0.5;exitY=1;exitDx=0;exitDy=0;entryX=0.5;entryY=0;entryDx=0;entryDy=0;strokeWidth=3;strokeColor=#82b366;" edge="1" parent="1" source="router1" target="shard_bus">
      <mxGeometry width="50" height="50" relative="1" as="geometry">
        <mxPoint x="485" y="590" as="sourcePoint" />
        <mxPoint x="775" y="680" as="targetPoint" />
      </mxGeometry>
    </mxCell>
    <mxCell id="router2_to_shard" style="endArrow=classic;html=1;rounded=0;exitX=0.5;exitY=1;exitDx=0;exitDy=0;entryX=0.5;entryY=0;entryDx=0;entryDy=0;strokeWidth=3;strokeColor=#82b366;" edge="1" parent="1" source="router2" target="shard_bus">
      <mxGeometry width="50" height="50" relative="1" as="geometry">
        <mxPoint x="705" y="590" as="sourcePoint" />
        <mxPoint x="895" y="680" as="targetPoint" />
      </mxGeometry>
    </mxCell>
    <mxCell id="router3_to_shard" style="endArrow=classic;html=1;rounded=0;exitX=0.5;exitY=1;exitDx=0;exitDy=0;strokeWidth=3;strokeColor=#82b366;entryX=0.5;entryY=0;entryDx=0;entryDy=0;" edge="1" parent="1" source="router3" target="shard_bus">
      <mxGeometry width="50" height="50" relative="1" as="geometry">
        <mxPoint x="885" y="590" as="sourcePoint" />
        <mxPoint x="885" y="680" as="targetPoint" />
      </mxGeometry>
    </mxCell>
    <mxCell id="shard_bus_to_shard1" style="edgeStyle=orthogonalEdgeStyle;rounded=0;orthogonalLoop=1;jettySize=auto;html=1;exitX=0.5;exitY=1;exitDx=0;exitDy=0;endArrow=classic;endFill=1;strokeWidth=3;strokeColor=#82B366;entryX=0.5;entryY=0;entryDx=0;entryDy=0;" edge="1" parent="1" source="shard_bus" target="shard1_group">
      <mxGeometry relative="1" as="geometry">
        <mxPoint x="1095" y="790" as="targetPoint" />
        <Array as="points">
          <mxPoint x="845" y="750" />
          <mxPoint x="910" y="750" />
        </Array>
      </mxGeometry>
    </mxCell>
    <mxCell id="shard_bus_to_shard2" style="edgeStyle=orthogonalEdgeStyle;rounded=0;orthogonalLoop=1;jettySize=auto;html=1;exitX=1;exitY=0.5;exitDx=0;exitDy=0;endArrow=classic;endFill=1;strokeWidth=3;strokeColor=#82B366;entryX=0.5;entryY=0;entryDx=0;entryDy=0;" edge="1" parent="1" source="shard_bus" target="shard2_group">
      <mxGeometry relative="1" as="geometry">
        <Array as="points">
          <mxPoint x="1260" y="690" />
        </Array>
      </mxGeometry>
    </mxCell>
    <mxCell id="config_repl1" style="edgeStyle=orthogonalEdgeStyle;rounded=0;orthogonalLoop=1;jettySize=auto;html=1;strokeWidth=2;strokeColor=#ff6666;dashed=1;entryX=0;entryY=0.5;entryDx=0;entryDy=0;entryPerimeter=0;exitX=1;exitY=0.5;exitDx=0;exitDy=0;exitPerimeter=0;" edge="1" parent="1" source="config1" target="config2">
      <mxGeometry relative="1" as="geometry" />
    </mxCell>
    <mxCell id="config_repl2" style="edgeStyle=orthogonalEdgeStyle;rounded=0;orthogonalLoop=1;jettySize=auto;html=1;strokeWidth=2;strokeColor=#ff6666;dashed=1;entryX=0.5;entryY=0;entryDx=0;entryDy=0;entryPerimeter=0;exitX=0.5;exitY=1;exitDx=0;exitDy=0;exitPerimeter=0;" edge="1" parent="1" source="config2" target="config3">
      <mxGeometry relative="1" as="geometry">
        <Array as="points">
          <mxPoint x="240" y="890" />
          <mxPoint x="180" y="890" />
        </Array>
      </mxGeometry>
    </mxCell>
    <mxCell id="config_repl3" style="edgeStyle=orthogonalEdgeStyle;rounded=0;orthogonalLoop=1;jettySize=auto;html=1;exitX=0.5;exitY=0;exitDx=0;exitDy=0;exitPerimeter=0;entryX=0.5;entryY=1;entryDx=0;entryDy=0;entryPerimeter=0;dashed=1;strokeWidth=2;strokeColor=#FF6666;" edge="1" parent="1" source="config3" target="config1">
      <mxGeometry relative="1" as="geometry">
        <Array as="points">
          <mxPoint x="180" y="890" />
          <mxPoint x="120" y="890" />
        </Array>
      </mxGeometry>
    </mxCell>
    <mxCell id="shard1_repl1" style="edgeStyle=orthogonalEdgeStyle;rounded=0;orthogonalLoop=1;jettySize=auto;html=1;strokeWidth=2;strokeColor=#00cc66;dashed=1;entryX=0;entryY=0.5;entryDx=0;entryDy=0;entryPerimeter=0;exitX=1;exitY=0.5;exitDx=0;exitDy=0;exitPerimeter=0;" edge="1" parent="1" source="shard1_1" target="shard1_2">
      <mxGeometry relative="1" as="geometry" />
    </mxCell>
    <mxCell id="shard1_repl2" style="edgeStyle=orthogonalEdgeStyle;rounded=0;orthogonalLoop=1;jettySize=auto;html=1;strokeWidth=2;strokeColor=#00cc66;dashed=1;entryX=0.5;entryY=0;entryDx=0;entryDy=0;entryPerimeter=0;exitX=0.5;exitY=1;exitDx=0;exitDy=0;exitPerimeter=0;" edge="1" parent="1" source="shard1_2" target="shard1_3">
      <mxGeometry relative="1" as="geometry" />
    </mxCell>
    <mxCell id="shard1_repl3" style="edgeStyle=orthogonalEdgeStyle;rounded=0;orthogonalLoop=1;jettySize=auto;html=1;strokeWidth=2;strokeColor=#00cc66;dashed=1;entryX=0.5;entryY=1;entryDx=0;entryDy=0;entryPerimeter=0;" edge="1" parent="1" target="shard1_1">
      <mxGeometry relative="1" as="geometry">
        <mxPoint x="915" y="980" as="sourcePoint" />
      </mxGeometry>
    </mxCell>
    <mxCell id="shard2_repl1" style="edgeStyle=orthogonalEdgeStyle;rounded=0;orthogonalLoop=1;jettySize=auto;html=1;strokeWidth=2;strokeColor=#00cc66;dashed=1;entryX=0;entryY=0.5;entryDx=0;entryDy=0;entryPerimeter=0;exitX=1;exitY=0.5;exitDx=0;exitDy=0;exitPerimeter=0;" edge="1" parent="1" source="shard2_1" target="shard2_2">
      <mxGeometry relative="1" as="geometry" />
    </mxCell>
    <mxCell id="shard2_repl2" style="edgeStyle=orthogonalEdgeStyle;rounded=0;orthogonalLoop=1;jettySize=auto;html=1;strokeWidth=2;strokeColor=#00cc66;dashed=1;entryX=0.5;entryY=0;entryDx=0;entryDy=0;entryPerimeter=0;exitX=0.5;exitY=1;exitDx=0;exitDy=0;exitPerimeter=0;" edge="1" parent="1" source="shard2_2" target="shard2_3">
      <mxGeometry relative="1" as="geometry" />
    </mxCell>
    <mxCell id="shard2_repl3" style="edgeStyle=orthogonalEdgeStyle;rounded=0;orthogonalLoop=1;jettySize=auto;html=1;strokeWidth=2;strokeColor=#00cc66;dashed=1;entryX=0.5;entryY=1;entryDx=0;exitY=0;exitDx=0;exitDy=0;exitPerimeter=0;" edge="1" parent="1" source="shard2_3" target="shard2_1">
      <mxGeometry relative="1" as="geometry" />
    </mxCell>
    <mxCell id="title1" value="Схема 4: Service Discovery + API Gateway&lt;br&gt;Версия: 4.0 | Дата: 18.08.2025" style="text;html=1;strokeColor=none;fillColor=none;align=left;verticalAlign=top;whiteSpace=wrap;rounded=0;fontSize=16;fontStyle=1;" vertex="1" parent="1">
      <mxGeometry x="925" y="20" width="400" height="50" as="geometry" />
    </mxCell>
    <mxCell id="label1" value="Балансировка нагрузки\nRound-Robin" style="text;html=1;strokeColor=none;fillColor=none;align=center;verticalAlign=middle;whiteSpace=wrap;rounded=0;fontSize=10;fontStyle=2;" vertex="1" parent="1">
      <mxGeometry x="315" y="400" width="120" height="40" as="geometry" />
    </mxCell>
    <mxCell id="label2" value="Service Discovery&lt;br&gt;Автообнаружение" style="text;html=1;strokeColor=none;fillColor=none;align=center;verticalAlign=middle;whiteSpace=wrap;rounded=0;fontSize=14;fontStyle=2;" vertex="1" parent="1">
      <mxGeometry x="670" y="120" width="140" height="50" as="geometry" />
    </mxCell>
    <mxCell id="label3" value="Cache-Aside&lt;br&gt;(Приоритетный путь)" style="text;html=1;strokeColor=none;fillColor=none;align=center;verticalAlign=middle;whiteSpace=wrap;rounded=0;fontSize=10;fontStyle=2;" vertex="1" parent="1">
      <mxGeometry x="720" y="310" width="120" height="40" as="geometry" />
    </mxCell>
    <mxCell id="label4" value="Метаданные кластера" style="text;html=1;strokeColor=none;fillColor=none;align=center;verticalAlign=middle;whiteSpace=wrap;rounded=0;fontSize=12;fontStyle=2;" vertex="1" parent="1">
      <mxGeometry x="450" y="710" width="120" height="30" as="geometry" />
    </mxCell>
    <mxCell id="label5" value="Данные пользователей" style="text;html=1;strokeColor=none;fillColor=none;align=center;verticalAlign=middle;whiteSpace=wrap;rounded=0;fontSize=12;fontStyle=2;" vertex="1" parent="1">
      <mxGeometry x="775" y="710" width="120" height="30" as="geometry" />
    </mxCell>
    <mxCell id="app3" value="pymongo-api-3" style="rounded=1;whiteSpace=wrap;html=1;fillColor=#dae8fc;strokeColor=#6c8ebf;fontSize=12;fontStyle=1;" vertex="1" parent="1">
      <mxGeometry x="560" y="260" width="120" height="60" as="geometry" />
    </mxCell>
    <mxCell id="z4TPAnQSz6cN8fsmu4oZ-18" value="" style="endArrow=classic;html=1;rounded=0;exitX=0.75;exitY=0;exitDx=0;exitDy=0;entryX=0.5;entryY=1;entryDx=0;entryDy=0;entryPerimeter=0;dashed=1;strokeColor=#666666;strokeWidth=3;align=center;verticalAlign=middle;fontFamily=Helvetica;fontSize=11;fontColor=default;labelBackgroundColor=default;" edge="1" parent="1" source="app1" target="consul">
      <mxGeometry width="50" height="50" relative="1" as="geometry">
        <mxPoint x="450" y="530" as="sourcePoint" />
        <mxPoint x="500" y="480" as="targetPoint" />
      </mxGeometry>
    </mxCell>
    <mxCell id="z4TPAnQSz6cN8fsmu4oZ-19" value="" style="endArrow=classic;html=1;rounded=0;exitX=0.75;exitY=0;exitDx=0;exitDy=0;entryX=0.5;entryY=1;entryDx=0;entryDy=0;entryPerimeter=0;dashed=1;strokeColor=#666666;strokeWidth=3;align=center;verticalAlign=middle;fontFamily=Helvetica;fontSize=11;fontColor=default;labelBackgroundColor=default;" edge="1" parent="1" source="app2" target="consul">
      <mxGeometry width="50" height="50" relative="1" as="geometry">
        <mxPoint x="540" y="365" as="sourcePoint" />
        <mxPoint x="815" y="210" as="targetPoint" />
      </mxGeometry>
    </mxCell>
    <mxCell id="z4TPAnQSz6cN8fsmu4oZ-20" value="" style="endArrow=classic;html=1;rounded=0;exitX=1;exitY=0.5;exitDx=0;exitDy=0;entryX=0.5;entryY=1;entryDx=0;entryDy=0;entryPerimeter=0;dashed=1;strokeColor=#666666;strokeWidth=3;align=center;verticalAlign=middle;fontFamily=Helvetica;fontSize=11;fontColor=default;labelBackgroundColor=default;" edge="1" parent="1" source="app3" target="consul">
      <mxGeometry width="50" height="50" relative="1" as="geometry">
        <mxPoint x="540" y="390" as="sourcePoint" />
        <mxPoint x="700" y="250" as="targetPoint" />
        <Array as="points">
          <mxPoint x="700" y="210" />
        </Array>
      </mxGeometry>
    </mxCell>
    <mxCell id="z4TPAnQSz6cN8fsmu4oZ-22" value="GET" style="text;html=1;align=center;verticalAlign=middle;whiteSpace=wrap;rounded=0;" vertex="1" parent="1">
      <mxGeometry x="480" y="40" width="60" height="30" as="geometry" />
    </mxCell>
    <mxCell id="z4TPAnQSz6cN8fsmu4oZ-23" style="edgeStyle=orthogonalEdgeStyle;rounded=0;orthogonalLoop=1;jettySize=auto;html=1;exitX=0.75;exitY=1;exitDx=0;exitDy=0;entryX=0.5;entryY=1;entryDx=0;entryDy=0;entryPerimeter=0;strokeColor=#FF9900;strokeWidth=3;align=center;verticalAlign=middle;fontFamily=Helvetica;fontSize=11;fontColor=default;labelBackgroundColor=default;endArrow=classic;" edge="1" parent="1" source="app1" target="redis">
      <mxGeometry relative="1" as="geometry">
        <Array as="points">
          <mxPoint x="285" y="360" />
          <mxPoint x="965" y="360" />
        </Array>
      </mxGeometry>
    </mxCell>
    <mxCell id="z4TPAnQSz6cN8fsmu4oZ-25" style="edgeStyle=orthogonalEdgeStyle;rounded=0;orthogonalLoop=1;jettySize=auto;html=1;exitX=0.75;exitY=1;exitDx=0;exitDy=0;entryX=0.5;entryY=1;entryDx=0;entryDy=0;entryPerimeter=0;strokeColor=#FF9900;strokeWidth=3;align=center;verticalAlign=middle;fontFamily=Helvetica;fontSize=11;fontColor=default;labelBackgroundColor=default;endArrow=classic;" edge="1" parent="1" source="app2" target="redis">
      <mxGeometry relative="1" as="geometry">
        <Array as="points">
          <mxPoint x="470" y="360" />
          <mxPoint x="965" y="360" />
        </Array>
      </mxGeometry>
    </mxCell>
    <mxCell id="z4TPAnQSz6cN8fsmu4oZ-26" style="edgeStyle=orthogonalEdgeStyle;rounded=0;orthogonalLoop=1;jettySize=auto;html=1;exitX=0.75;exitY=1;exitDx=0;exitDy=0;entryX=0.5;entryY=1;entryDx=0;entryDy=0;entryPerimeter=0;strokeColor=#FF9900;strokeWidth=3;align=center;verticalAlign=middle;fontFamily=Helvetica;fontSize=11;fontColor=default;labelBackgroundColor=default;endArrow=classic;" edge="1" parent="1" source="app3" target="redis">
      <mxGeometry relative="1" as="geometry">
        <Array as="points">
          <mxPoint x="650" y="360" />
          <mxPoint x="965" y="360" />
        </Array>
      </mxGeometry>
    </mxCell>
  </root>
</mxGraphModel>
